<?xml version="1.0" standalone="no"?>
<!DOCTYPE svg PUBLIC "-//W3C//DTD SVG 20010904//EN"
 "http://www.w3.org/TR/2001/REC-SVG-20010904/DTD/svg10.dtd">
<svg version="1.0" xmlns="http://www.w3.org/2000/svg"
 width="726.000000pt" height="200.000000pt" viewBox="0 0 726.000000 200.000000"
 preserveAspectRatio="xMidYMid meet">

<g transform="translate(0.000000,200.000000) scale(0.100000,-0.100000)"
fill="#000000" stroke="none">
<path d="M1626 1574 c-146 -47 -237 -173 -223 -309 7 -67 35 -122 87 -169 54
-49 88 -62 229 -91 101 -21 119 -28 144 -55 53 -59 24 -126 -63 -150 -94 -25
-187 16 -231 102 l-14 26 -79 -47 c-44 -26 -81 -51 -83 -57 -2 -6 11 -31 28
-57 125 -188 459 -210 610 -38 71 80 88 206 40 299 -47 93 -139 143 -320 176
-46 9 -94 23 -108 31 -66 44 -41 138 45 166 45 15 116 5 153 -21 l28 -21 81
46 c44 26 80 50 80 54 0 17 -79 82 -125 102 -66 29 -208 36 -279 13z"/>
<path d="M2520 1575 c-222 -62 -352 -236 -352 -475 0 -156 48 -270 156 -367
230 -208 621 -135 752 141 84 177 63 393 -51 538 -50 65 -124 118 -206 150
-72 27 -222 34 -299 13z m216 -200 c67 -20 117 -64 151 -133 24 -50 28 -68 27
-142 0 -67 -6 -95 -24 -133 -64 -133 -229 -189 -365 -123 -99 49 -148 138
-147 267 2 199 168 321 358 264z"/>
<path d="M4584 1581 c-191 -49 -296 -250 -216 -408 48 -93 117 -133 289 -168
103 -22 121 -28 146 -55 30 -34 34 -58 12 -99 -18 -37 -67 -56 -135 -55 -80 2
-135 35 -171 105 l-14 27 -82 -47 c-45 -25 -83 -51 -83 -57 0 -23 61 -105 101
-133 75 -55 142 -74 254 -74 117 0 186 21 254 79 66 57 95 123 96 214 0 58 -5
84 -22 115 -49 93 -138 144 -305 175 -56 11 -114 28 -127 38 -77 57 -25 159
86 169 37 4 59 -1 97 -21 l49 -25 79 45 c43 25 78 49 78 54 0 16 -83 82 -128
102 -52 22 -202 34 -258 19z"/>
<path d="M6684 1566 c-83 -27 -141 -65 -206 -133 -172 -185 -165 -503 15 -683
172 -171 483 -184 653 -28 43 39 104 121 104 139 0 4 -39 30 -87 58 l-86 50
-28 -44 c-39 -62 -103 -97 -188 -103 -106 -7 -184 27 -240 104 -81 111 -70
286 22 382 55 58 102 77 192 77 69 0 86 -4 127 -27 51 -30 105 -90 114 -125 4
-13 8 -23 10 -23 7 0 165 93 169 99 8 14 -49 109 -92 153 -115 118 -307 160
-479 104z"/>
<path d="M3280 1100 l0 -470 100 0 100 0 2 178 3 177 123 3 122 3 0 89 0 89
-122 3 -123 3 -3 98 -3 97 201 0 200 0 0 100 0 100 -300 0 -300 0 0 -470z"/>
<path d="M4000 1100 l0 -470 100 0 100 0 0 470 0 470 -100 0 -100 0 0 -470z"/>
<path d="M5120 1470 l0 -100 145 0 145 0 0 -370 0 -370 100 0 100 0 0 370 0
370 150 0 150 0 0 100 0 100 -395 0 -395 0 0 -100z"/>
<path d="M6000 1100 l0 -470 100 0 100 0 0 470 0 470 -100 0 -100 0 0 -470z"/>
<path d="M202 1023 c-17 -21 -32 -43 -32 -49 0 -7 -4 -14 -8 -16 -5 -1 -41
-58 -80 -125 l-71 -122 82 -47 c45 -26 85 -48 88 -50 6 -3 150 248 151 263 0
4 9 25 19 45 24 47 18 62 -31 78 -21 7 -41 19 -44 26 -3 8 -12 14 -20 14 -8 0
-16 5 -18 10 -2 6 -18 -6 -36 -27z"/>
<path d="M1551 247 c-41 -21 -64 -62 -64 -110 2 -75 48 -122 122 -122 49 0 97
30 81 50 -11 13 -15 13 -33 0 -31 -22 -72 -18 -104 9 -37 32 -39 99 -4 127 36
30 71 34 105 15 40 -23 62 -4 27 25 -27 22 -93 25 -130 6z"/>
<path d="M1950 254 c0 -4 18 -35 40 -70 33 -52 40 -72 40 -114 0 -43 3 -50 20
-50 17 0 20 7 20 45 0 35 8 59 33 98 58 90 61 97 38 97 -13 0 -30 -18 -51 -55
-17 -30 -33 -55 -35 -55 -3 0 -20 25 -40 55 -19 30 -42 55 -50 55 -8 0 -15 -3
-15 -6z"/>
<path d="M2420 140 l0 -120 78 0 c64 0 82 4 95 18 23 26 21 68 -4 85 -20 15
-20 16 -3 41 14 22 15 32 6 52 -15 31 -49 44 -118 44 l-54 0 0 -120z m135 50
c0 -22 -5 -26 -43 -31 -50 -6 -52 -5 -52 33 0 28 1 29 48 26 43 -3 47 -5 47
-28z m13 -99 c5 -30 -12 -41 -65 -41 -43 0 -43 0 -43 36 l0 35 53 -3 c46 -3
52 -6 55 -27z"/>
<path d="M2890 140 l0 -120 85 0 c69 0 85 3 85 15 0 12 -14 15 -65 15 l-65 0
0 35 0 35 55 0 c42 0 55 3 55 15 0 12 -13 15 -55 15 l-55 0 0 35 0 35 65 0
c58 0 65 2 65 20 0 18 -7 20 -85 20 l-85 0 0 -120z"/>
<path d="M3340 141 c0 -114 1 -121 20 -121 17 0 20 7 20 40 0 37 2 40 29 40
22 0 34 -9 55 -40 19 -29 33 -40 52 -40 l26 0 -32 40 -32 40 26 21 c20 16 26
29 26 58 0 56 -24 73 -115 79 l-75 5 0 -122z m143 72 c4 -2 7 -17 7 -33 0 -35
-23 -50 -74 -50 -36 0 -36 0 -36 43 0 24 3 47 7 51 7 7 80 -1 96 -11z"/>
<path d="M3832 244 c-15 -10 -22 -25 -22 -48 0 -40 9 -49 75 -73 41 -15 50
-23 50 -43 0 -21 -5 -26 -33 -28 -18 -2 -44 4 -57 12 -20 13 -25 13 -35 1 -17
-20 30 -48 85 -49 54 -1 85 24 85 69 0 39 -10 48 -75 72 -37 14 -51 24 -53 40
-4 28 34 40 78 25 36 -13 53 4 25 25 -25 18 -95 17 -123 -3z"/>
<path d="M4260 140 l0 -120 85 0 c69 0 85 3 85 15 0 12 -14 15 -65 15 l-65 0
0 35 0 34 57 3 c81 4 85 28 4 28 l-61 0 0 35 0 35 65 0 c58 0 65 2 65 20 0 18
-7 20 -85 20 l-85 0 0 -120z"/>
<path d="M4753 240 c-41 -24 -53 -48 -53 -103 0 -99 116 -159 194 -101 16 11
17 17 8 26 -10 10 -17 10 -32 0 -11 -6 -31 -12 -46 -12 -89 0 -122 125 -43
165 35 19 53 19 88 0 25 -12 31 -12 41 0 9 11 6 17 -19 29 -41 22 -99 20 -138
-4z"/>
<path d="M5190 175 c0 -104 14 -138 65 -155 44 -15 97 1 119 35 22 33 23 205
2 205 -11 0 -15 -20 -17 -84 -4 -94 -22 -126 -69 -126 -47 0 -65 32 -67 123
-2 65 -5 83 -17 85 -14 3 -16 -10 -16 -83z"/>
<path d="M5680 140 c0 -113 1 -120 20 -120 17 0 20 7 20 40 0 37 2 40 29 40
22 0 35 -9 56 -40 20 -28 35 -40 53 -40 l24 0 -26 34 c-31 42 -32 47 -6 69 20
17 28 79 12 104 -13 20 -61 33 -123 33 l-59 0 0 -120z m147 68 c37 -30 -6 -78
-69 -78 l-38 0 0 43 c0 24 3 47 8 51 9 10 82 -2 99 -16z"/>
<path d="M6160 141 c0 -115 1 -121 20 -121 20 0 21 5 18 117 -3 103 -5 118
-20 121 -16 3 -18 -8 -18 -117z"/>
<path d="M6470 240 c0 -16 7 -20 35 -20 l35 0 0 -100 c0 -93 1 -100 20 -100
19 0 20 7 20 100 l0 100 35 0 c28 0 35 4 35 20 0 19 -7 20 -90 20 -83 0 -90
-1 -90 -20z"/>
<path d="M6893 253 c3 -5 23 -38 46 -76 32 -52 41 -77 41 -112 0 -38 3 -45 20
-45 17 0 20 7 20 49 0 41 7 62 41 116 23 36 39 68 36 72 -13 13 -38 -9 -64
-56 -16 -28 -31 -51 -35 -51 -3 0 -21 25 -38 55 -22 38 -38 55 -51 55 -11 0
-18 -3 -16 -7z"/>
</g>
</svg>
