<?xml version="1.0" standalone="no"?>
<!DOCTYPE svg PUBLIC "-//W3C//DTD SVG 20010904//EN"
 "http://www.w3.org/TR/2001/REC-SVG-20010904/DTD/svg10.dtd">
<svg version="1.0" xmlns="http://www.w3.org/2000/svg"
 width="726.000000pt" height="200.000000pt" viewBox="0 0 726.000000 200.000000"
 preserveAspectRatio="xMidYMid meet">

<g transform="translate(0.000000,200.000000) scale(0.100000,-0.100000)"
fill="#000000" stroke="none">
<path d="M0 1000 l0 -1000 788 0 c784 0 787 0 755 20 -38 23 -58 53 -68 98 -9
42 24 111 64 135 70 41 208 -2 160 -50 -8 -8 -21 -7 -48 4 -33 13 -42 13 -74
0 -29 -13 -37 -22 -43 -51 -12 -69 43 -112 114 -86 29 10 36 10 51 -5 17 -18
17 -17 -36 -52 -14 -9 230 -12 1092 -12 1025 0 1108 1 1080 16 -39 21 -47 35
-30 52 11 12 19 12 40 3 32 -15 72 -15 80 -2 10 16 -12 38 -45 45 -78 17 -108
92 -54 134 35 28 103 28 135 2 22 -18 22 -21 9 -35 -13 -13 -21 -14 -47 -4
-25 9 -35 9 -47 -1 -21 -17 -6 -37 34 -46 79 -17 107 -91 54 -140 l-27 -25
429 0 429 1 -37 20 c-46 24 -68 64 -68 122 0 97 110 158 200 112 55 -28 30
-72 -27 -49 -61 26 -113 -5 -113 -68 0 -65 64 -101 119 -66 22 13 51 5 51 -16
0 -8 -15 -23 -32 -35 l-33 -21 205 0 205 0 -32 20 c-47 28 -54 49 -51 153 3
91 3 92 28 92 25 0 25 -1 28 -89 2 -50 8 -96 14 -103 15 -18 63 -16 79 3 8 10
16 52 19 103 5 78 7 86 25 86 18 0 20 -8 23 -86 3 -102 -6 -132 -50 -159 l-33
-20 973 0 972 0 0 420 c0 231 -2 420 -3 420 -2 0 -20 -24 -40 -53 -36 -52
-104 -111 -162 -140 -16 -8 -60 -22 -96 -31 -332 -82 -644 182 -615 521 24
273 228 463 496 463 168 0 326 -85 390 -209 11 -23 23 -41 25 -41 3 0 5 146 5
325 l0 325 -3630 0 -3630 0 0 -1000z m1034 795 c59 -101 114 -201 122 -222 28
-66 14 -107 -101 -305 l-105 -181 106 -185 c64 -111 102 -188 96 -194 -5 -5
-42 -28 -84 -51 l-75 -43 -109 188 -108 188 -188 0 -187 0 -27 -45 c-29 -50
-43 -61 -19 -16 20 39 12 56 -35 71 -21 7 -41 19 -44 26 -3 8 -12 14 -21 14
-8 0 -15 6 -15 13 -1 6 -12 -1 -27 -18 l-26 -30 22 39 22 38 -45 77 c-24 42
-73 126 -109 188 l-66 112 87 50 86 51 33 -58 c18 -31 66 -114 106 -184 l72
-128 191 0 191 0 92 160 c81 142 90 163 80 183 -7 12 -55 95 -107 185 -52 90
-91 166 -88 169 14 14 152 93 163 93 6 0 59 -83 117 -185z m877 -227 c58 -26
129 -87 129 -109 0 -8 -38 -35 -84 -61 l-83 -47 -48 25 c-116 58 -227 2 -201
-102 8 -32 29 -41 153 -65 124 -24 195 -54 247 -105 116 -112 114 -275 -3
-395 -78 -79 -142 -103 -276 -103 -113 0 -183 21 -258 78 -41 31 -107 117
-107 140 0 12 153 106 173 106 7 0 21 -17 32 -37 27 -49 64 -74 123 -84 121
-19 210 53 157 127 -19 28 -50 39 -165 62 -52 11 -117 30 -145 43 -178 84
-219 296 -85 443 82 89 156 117 296 112 71 -2 103 -8 145 -28z m840 22 c123
-24 251 -113 316 -222 39 -64 73 -190 73 -267 -1 -133 -54 -266 -145 -356
-122 -121 -297 -170 -464 -129 -171 42 -302 162 -351 323 -28 89 -28 245 1
329 80 238 314 370 570 322z m2093 -19 c55 -24 113 -67 127 -94 14 -25 5 -34
-87 -86 l-71 -40 -48 25 c-111 55 -225 3 -207 -94 7 -35 38 -50 157 -73 61
-12 133 -32 160 -45 70 -32 130 -95 155 -161 41 -109 18 -207 -68 -293 -80
-80 -144 -104 -277 -104 -113 0 -183 21 -258 78 -42 32 -107 117 -107 141 0
13 151 105 172 105 7 0 22 -17 33 -37 27 -49 64 -74 123 -84 121 -19 210 53
157 127 -19 28 -50 39 -168 63 -153 31 -231 78 -277 167 -35 69 -35 178 -1
248 42 85 126 152 225 177 55 15 210 3 260 -20z m-959 -101 l0 -105 -195 -5
-195 -5 0 -85 0 -85 120 -5 120 -5 3 -97 3 -97 -123 -3 -123 -3 -3 -173 -2
-173 -108 3 -107 3 -3 460 c-1 253 0 466 3 473 3 10 70 12 307 10 l303 -3 0
-105z m323 -368 l2 -473 -107 3 -108 3 -3 460 c-1 253 0 466 3 473 3 9 31 12
107 10 l103 -3 3 -473z m1707 368 l0 -105 -145 -5 -145 -5 -3 -363 -2 -363
-108 3 -107 3 -5 360 -5 360 -140 5 -140 5 -3 94 c-1 52 0 101 2 108 5 11 79
13 403 11 l398 -3 0 -105z m293 -367 l2 -473 -110 0 -110 0 0 468 c0 258 3
472 7 476 4 4 52 5 107 4 l101 -3 3 -472z m-4194 -878 c15 -25 32 -45 39 -45
7 0 24 20 39 45 26 42 58 59 72 37 3 -5 -15 -42 -39 -83 -36 -60 -45 -83 -45
-122 0 -47 -1 -48 -27 -45 -26 3 -28 7 -33 58 -4 40 -15 72 -43 117 -21 35
-36 67 -32 73 14 23 44 8 69 -35z m543 35 c41 -15 60 -52 46 -89 -8 -21 -7
-32 3 -46 20 -28 17 -66 -8 -92 -19 -20 -31 -23 -105 -23 l-83 0 0 123 c0 68
3 127 7 130 10 11 107 8 140 -3z m508 -20 c0 -23 -4 -25 -60 -30 -52 -4 -60
-8 -60 -25 0 -17 8 -21 55 -25 52 -5 57 -8 52 -39 -1 -6 -26 -11 -54 -13 -45
-3 -53 -6 -53 -23 0 -17 8 -21 60 -25 53 -4 60 -8 63 -28 3 -21 1 -22 -92 -22
l-96 0 0 123 c0 68 3 127 7 131 4 4 46 5 93 4 83 -3 85 -4 85 -28z m417 20
c21 -6 42 -19 48 -30 17 -31 12 -85 -11 -114 l-20 -26 20 -29 c28 -39 26 -51
-6 -51 -21 1 -35 11 -56 41 -35 51 -61 50 -65 -4 -3 -34 -6 -37 -33 -37 l-29
0 0 123 c0 68 3 127 7 130 10 11 104 8 145 -3z m953 -20 c0 -23 -4 -25 -60
-30 -52 -4 -60 -8 -60 -25 0 -17 8 -20 53 -23 48 -3 53 -5 50 -25 -3 -18 -11
-23 -53 -27 -42 -4 -50 -8 -50 -25 0 -17 8 -21 60 -25 53 -4 60 -8 63 -28 3
-21 1 -22 -92 -22 l-96 0 0 123 c0 68 3 127 7 131 4 4 46 5 93 4 83 -3 85 -4
85 -28z m1404 12 c47 -23 57 -63 31 -117 -24 -50 -24 -54 0 -85 26 -33 25 -40
-7 -40 -20 0 -38 12 -63 42 -44 51 -70 48 -70 -7 0 -34 -2 -36 -27 -33 l-28 3
-3 114 c-1 63 0 121 2 128 8 20 123 17 165 -5z m369 -114 l3 -128 -31 0 -30 0
0 123 c0 68 3 127 7 131 4 4 16 6 28 4 19 -3 20 -11 23 -130z m447 102 c0 -20
-6 -26 -30 -30 l-30 -5 -3 -98 -3 -98 -27 3 c-27 3 -27 4 -32 98 l-5 95 -28 3
c-30 4 -43 22 -33 47 5 13 22 15 98 13 92 -3 93 -3 93 -28z m303 -15 c15 -24
32 -45 39 -45 7 0 24 20 39 45 19 34 32 45 50 45 13 0 24 -5 24 -11 0 -6 -20
-45 -45 -86 -36 -58 -45 -83 -45 -118 0 -41 -2 -45 -25 -45 -23 0 -25 4 -25
48 0 38 -9 62 -45 121 -24 41 -42 78 -39 83 14 22 46 5 72 -37z"/>
<path d="M2535 1356 c-98 -46 -144 -125 -145 -247 0 -94 20 -156 67 -204 52
-54 105 -75 188 -75 126 0 213 61 248 173 61 194 -60 377 -248 377 -42 0 -75
-7 -110 -24z"/>
<path d="M2475 200 c-11 -18 10 -32 41 -28 40 4 38 32 -3 36 -17 2 -34 -2 -38
-8z"/>
<path d="M2474 95 c-9 -23 5 -35 41 -35 39 0 52 14 35 35 -16 19 -69 19 -76 0z"/>
<path d="M3394 196 c-13 -35 0 -51 41 -51 38 0 40 2 40 30 0 27 -3 30 -38 33
-26 2 -39 -1 -43 -12z"/>
<path d="M5734 196 c-13 -33 1 -51 38 -54 28 -2 39 1 47 17 18 33 3 51 -40 51
-25 0 -42 -5 -45 -14z"/>
<path d="M6725 1356 c-100 -47 -144 -124 -145 -252 0 -93 14 -135 62 -190 64
-73 178 -102 282 -73 41 11 121 79 131 110 9 29 32 23 115 -26 41 -25 78 -45
83 -45 4 0 7 92 7 205 0 113 -3 205 -7 205 -3 0 -41 -20 -84 -45 -43 -25 -80
-45 -83 -45 -2 0 -14 20 -26 45 -57 119 -211 170 -335 111z"/>
</g>
</svg>
